<svg width="1000" height="850" viewBox="0 0 1230 962" fill="none" xmlns="http://www.w3.org/2000/svg">

<style>

    @keyframes float {
        0%, 100% { transform: translateY(2%); }
        50% { transform: translateY(-2%); }
    }

    @keyframes light {
        0% { opacity: 0%; animation: reverse;}
        35%,100% { opacity: 50%;}
    }

    @keyframes move {
        0%, 70% {transform:rotateY(0deg) animation: reverse;}
        50%,90%,100%{transform: rotate(1deg);}
    }

    #Circle_top, #Circle_center, #Circle_bottom {
        animation: float 3s infinite;
    }

    #LightPhone {
        animation: light 7s infinite;
    }

    #Top_Hair, #Bottom_Hair, #Hair_Band
    , #Mask, #MaskBody, #Ears, #MyFace { 
        animation: move 8s infinite;
    }

    /* #Neck{

    } */

</style>
<ellipse id="MyFace" cx="699" cy="207" rx="123" ry="126" fill="#F9CDBB"/>

<g id="Clother">
<g id="Collar">
<path d="M682.509 433.405L554.2 344.855L577.262 333.269L679.574 407.75L743.728 341.959L766.371 350.234L732.407 388.716L708.506 411.888L682.509 433.405Z" fill="#D9D9D9"/>
<path d="M766.371 350.234L743.728 341.959L679.574 407.75L577.262 333.269L554.2 344.855L682.509 433.405L708.506 411.888L732.407 388.716L766.371 350.234ZM766.371 350.234H811.656L821.72 358.51" stroke="#B1B1B1"/>
</g>

<g id="Shirt">
<path d="M513.527 945.671L509.334 913.809L534.493 908.43L578.939 904.292L602.84 899.327L635.546 892.292L648.125 887.741L665.317 873.672L670.349 868.293L679.574 857.121L682.928 851.741L687.541 845.121L692.572 842.638L698.443 841.811L703.894 839.742L708.506 836.018L712.28 831.466L726.956 826.087L731.987 819.052L735.761 816.57L742.47 804.156V792.57L740.793 785.536L733.665 779.743L794.045 744.571L792.368 797.949L786.917 823.19V828.983V850.086V882.775V918.774L777.273 927.05L765.951 931.602L755.049 937.395L743.309 939.878L736.18 944.429L726.536 945.671L718.15 947.739L710.183 945.671L694.669 952.705L674.961 956.015L650.641 950.636L629.676 942.774L615.839 941.533L602.84 938.222L591.519 939.878L575.166 938.222L546.233 945.671H513.527Z" fill="#D9D9D9"/>
<path fill-rule="evenodd" clip-rule="evenodd" d="M808.931 384.372L824.235 356.855L813.333 349.821H768.048L727.545 394.095L710.603 411.061L684.605 432.577L621.709 387.889L556.716 344.855L500.109 376.303L502.765 384.165L506.399 396.578L521.075 438.37L530.3 521.955L522.752 748.709V754.088L530.824 766.502H528.662L549.588 771.467L554.2 764.433L589.841 748.709L608.71 741.675L614.894 736.921C639.882 726.877 660.42 721.914 653.157 708.572L662.058 698.428L692.572 677.952L744.986 636.987L744.995 636.984C745.041 637.005 745.253 637.227 745.604 637.593C749.43 641.587 769.768 662.817 770.983 629.539L775.596 621.677L779.369 585.264V539.334L793.626 499.197L840.169 400.716L821.72 403.199L807.044 399.061L808.931 384.372Z" fill="#D9D9D9"/>
<path d="M614.894 736.921C614.894 736.921 637.536 721.611 637.117 720.784C636.698 719.956 648.439 716.646 648.439 716.646L653.157 708.572C660.42 721.914 639.882 726.877 614.894 736.921Z" fill="#D9D9D9"/>
<path d="M770.983 629.539C769.768 662.817 749.43 641.587 745.604 637.593C745.253 637.227 745.041 637.005 744.995 636.984M770.983 629.539L744.995 636.984M770.983 629.539L775.596 621.677L779.369 585.264V539.334L793.626 499.197L840.169 400.716L821.72 403.199L807.044 399.061L808.931 384.372L824.235 356.855L813.333 349.821H768.048M744.986 636.987L692.572 677.952M744.986 636.987L744.995 636.984M744.986 636.987C744.986 636.982 744.989 636.982 744.995 636.984M692.572 677.952L690.722 679.193L677.477 685.308L665.737 691.402C663.502 698.297 672.749 703.601 650.641 706.917M692.572 677.952L662.058 698.428M650.641 706.917C649.803 707.33 656.714 708.547 653.157 708.572M650.641 706.917C654.834 701.537 668.959 698.9 662.058 698.428M608.71 741.675L614.894 736.921M608.71 741.675L599.486 742.502L594.035 743.744L591.099 747.468L589.841 748.709M608.71 741.675L589.841 748.709M614.894 736.921C614.894 736.921 637.536 721.611 637.117 720.784C636.698 719.956 648.439 716.646 648.439 716.646L653.157 708.572M614.894 736.921C639.882 726.877 660.42 721.914 653.157 708.572M589.841 748.709L554.2 764.433M589.841 748.709L586.487 750.189L571.392 743.744M571.392 743.744L563.425 747.468L559.651 752.433L557.135 757.812L554.2 764.433M571.392 743.744L554.2 764.433M554.2 764.433L549.588 771.467L528.662 766.502M528.662 766.502L528.413 768.571M528.662 766.502H530.824L522.752 754.088M528.662 766.502L522.752 757.812V748.709M528.413 768.571V762.794L526.788 760.295M528.413 768.571L526.788 760.295M526.788 760.295L525.364 756.571L522.752 754.088M522.752 748.709V754.088M522.752 748.709L527.784 569.954L530.3 521.955M522.752 748.709L530.3 521.955M530.3 521.955L524.429 482.232L521.075 438.37M530.3 521.955L521.075 438.37M521.075 438.37L506.399 396.578L502.765 384.165L500.109 376.303M521.075 438.37L500.109 376.303M500.109 376.303L556.716 344.855L621.709 387.889L684.605 432.577L710.603 411.061M768.048 349.821L727.545 394.095L710.603 411.061M768.048 349.821L763.436 355.658L739.116 382.51L710.603 411.061M575.166 938.222L554.62 939.878L546.233 938.222L535.751 934.498M575.166 938.222L591.519 939.878L602.84 938.222L615.839 941.533L629.676 942.774L650.641 950.636L674.961 956.015L694.669 952.705L710.183 945.671L718.15 947.739L726.536 945.671L736.18 944.429L743.309 939.878L755.049 937.395L765.951 931.602L777.273 927.05L786.917 918.774V882.775V850.086V828.983V823.19L792.368 797.949L794.045 744.571L733.665 779.743L740.793 785.536L742.47 792.57V804.156L735.761 816.57L731.987 819.052L726.956 826.087L712.28 831.466L708.506 836.018L703.894 839.742L698.443 841.811L692.572 842.638L687.541 845.121L682.928 851.741L679.574 857.121L670.349 868.293L665.317 873.672L648.125 887.741L635.546 892.292L602.84 899.327L578.939 904.292L534.493 908.43L509.334 913.809L513.527 945.671H546.233L575.166 938.222ZM662.058 698.428L653.157 708.572" stroke="#B1B1B1"/>
</g>

<g id="Sweater">
<path d="M458.178 364.717H464.049L476.628 372.992L485.853 377.544L496.755 375.475C499.55 376.441 502.038 383.089 504.722 393.682C504.386 399.309 490.046 398.233 482.918 396.992L488.788 420.578L492.981 443.336L498.013 491.749L501.367 576.575L495.077 731.744L507.657 727.192L516.462 729.261L524.01 734.64L527.784 744.571L534.073 739.192H541.621L547.911 744.571C550.594 751.854 556.297 705.675 583.971 729.261L591.938 723.054L599.066 721.813H604.517C604.517 712.213 630.235 699.607 643.094 694.503L660.285 679.193L664.479 677.952H668.672L674.123 679.193L679.154 682.503L690.895 679.193C693.411 676.297 721.505 653.125 721.505 653.125L743.309 637.401L773.918 622.918L777.273 584.436L781.466 532.713L792.368 466.094L805.786 399.061V392.44V384.992L820.462 358.51L813.333 350.234L817.107 345.269L822.977 341.959L832.622 340.717H842.266L851.491 348.579L856.941 360.165L869.521 361.407L876.23 364.717L881.261 368.441L887.132 373.406L893.002 378.372L896.776 392.44L890.486 414.785L896.776 428.44L912.71 488.438L892.583 518.645L874.133 539.748L856.522 563.333L846.039 576.988L842.266 584.436L836.395 591.057L795.722 594.781L789.433 600.16L773.918 638.228L775.595 653.125L777.273 676.297L780.833 696.986L786.494 706.296L793.206 717.675L796.98 721.813L802.851 724.71L807.463 725.951H813.333L815.43 730.916L830.106 704.434L830.944 688.917L831.783 673.4L833.46 671.745L835.557 671.331L836.815 670.09H844.782L847.297 672.573L851.491 675.055L869.94 692.848L877.907 687.469H879.165L872.037 679.193C871.617 677.538 865.999 670.09 867.005 670.09H879.584H887.272H889.228L891.325 670.917L890.207 672.573L891.325 679.607L900.969 687.469H908.936L922.144 684.365L935.352 681.262H944.996L948.77 677.538L961.769 670.917L975.606 649.814L978.541 651.056L979.799 677.538L975.606 688.71L973.929 700.296L975.606 717.261L981.057 730.089L981.896 760.502L982.734 790.915L987.347 811.19L990.701 822.776L992.378 840.569L990.701 848.845L987.766 857.534L981.057 865.396L967.639 878.637L938.707 905.533L927.805 912.568L918.999 914.637H909.775L904.323 915.878L896.357 919.188L872.037 922.085L868.263 923.74H836.815L822.139 918.775L807.463 913.809L786.707 919.188V917.533V857.948V829.397L791.949 800.432L795.026 742.916L733.043 779.369C734.607 780.677 735.586 781.312 735.761 781.398L740.374 785.536L742.47 791.743L743.309 796.708L742.47 804.156L738.277 814.087L730.729 820.294L724.02 829.397L711.86 831.466L707.667 836.845L700.539 841.397L688.798 843.466L683.767 849.672L675.8 862.914L665.736 872.431L655.673 883.189L642.674 890.223L602.421 898.913L578.101 904.292L534.073 908.43L508.915 913.395L513.108 948.567H453.985L448.953 953.119L444.709 955.771C428.931 961.391 413.154 961.222 414.151 960.567L409.538 942.774L406.603 924.689C406.044 925.103 399.056 932.429 389.831 932.429L379.348 925.809L373.897 913.395L361.318 888.982L351.674 865.81L346.432 841.397L342.449 800.846L329.87 761.123L324.838 724.71L331.547 677.735L333.643 663.056L336.579 651.883L340.772 641.539L347.9 626.229L354.19 615.884L355.594 603.471L356.39 596.436L357.279 588.574L359.386 569.954L360.322 561.678L360.479 550.092V540.162L363.834 530.644L367.188 521.127L372.639 511.197L373.897 489.266L374.4 486.783L378.09 467.335L377.938 466.238C377.376 463.706 375.571 459.245 378.09 452.853L393.605 435.888V427.612L399.056 418.923L403.668 417.267H409.538L413.312 406.095L419.183 396.992L426.311 386.647L436.374 377.544L440.987 375.475L446.438 377.544L450.631 370.924L458.178 364.717Z" fill="#100A57"/>
<path d="M413.312 406.095L419.182 396.992L426.311 386.647L436.374 377.544L440.987 375.475L446.438 377.544L450.631 370.924L458.178 364.717H464.049L476.628 372.992L485.853 377.544L496.755 375.475C499.55 376.441 502.038 383.089 504.722 393.682C504.386 399.309 490.046 398.233 482.918 396.992M413.312 406.095L409.538 417.267H403.668L399.056 418.923L393.605 427.612V435.888L378.09 452.853M413.312 406.095L439.729 392.027L459.856 386.647H482.918M378.09 452.853C375.155 460.301 378.09 465.129 378.09 467.335M378.09 452.853L376.829 458.232C376.829 458.232 377.598 463.78 378.09 467.335M378.09 452.853L393.605 436.715L409.538 428.853M378.09 467.335C383.33 459.256 386.268 454.726 391.508 446.646L409.538 428.853M378.09 467.335C376.649 474.93 374.4 486.783 374.4 486.783L372.639 511.197M409.538 428.853L426.311 418.996L448.534 406.095M409.538 428.853L429.036 417.413M409.538 428.853C407.253 431.109 405.304 439.372 403.668 452.258M482.918 396.992H472.854L448.534 406.095M482.918 396.992L488.788 420.578L492.981 443.336L498.013 491.749M448.534 406.095L429.036 417.413M372.639 511.197L373.897 489.266L378.09 468.577L403.668 452.258M372.639 511.197L367.188 521.127L363.834 530.644M372.639 511.197L363.834 530.644M363.834 530.644L360.479 540.162V550.092L360.322 561.678L359.386 569.954M363.834 530.644L354.19 615.884M367.188 594.367L363.834 582.368L359.386 569.954M359.386 569.954L357.279 588.574L356.39 596.436L355.594 603.471L354.19 615.884M354.19 615.884L347.9 626.229L340.772 641.539L336.579 651.883L333.643 663.056M324.838 724.709L331.547 677.735L333.643 663.056M324.838 724.709C324.838 724.709 327.905 746.902 329.87 761.123M324.838 724.709L329.87 761.123M324.838 724.709L333.643 663.056M329.87 761.123C336.338 770.495 346.432 785.122 346.432 785.122M329.87 761.123C334.782 776.635 342.449 800.846 342.449 800.846L346.432 841.397L351.674 865.81L361.318 888.982L373.897 913.395L379.348 925.809L389.831 932.429C399.056 932.429 406.044 925.103 406.603 924.689M380.606 822.363L362.995 809.122L346.432 785.122M346.432 785.122L347.481 776.019L349.996 769.398L353.77 763.605L359.641 757.812M406.603 924.689L409.538 942.774L414.151 960.567C413.154 961.222 428.931 961.391 444.709 955.771M406.603 924.689C395.985 849.172 392.401 541.022 403.668 452.258M445.18 955.601C445.023 955.658 444.866 955.715 444.709 955.771M444.709 955.771L448.953 953.119L453.985 948.567H513.108L508.915 913.395M444.709 955.771L433.416 911.74M508.915 913.395L492.562 919.188H474.531L457.759 917.533L442.245 913.395L433.416 911.74M508.915 913.395L534.073 908.43L578.101 904.292L602.421 898.913L642.674 890.223L655.673 883.189L665.736 872.431L675.8 862.914L683.767 849.672L688.798 843.466L700.539 841.397L707.667 836.845L711.86 831.466L724.02 829.397L730.729 820.294L738.277 814.087L742.47 804.156L743.309 796.708L742.47 791.743L740.374 785.536L735.761 781.398M735.761 781.398L732.407 779.743L795.026 742.916M735.761 781.398C735.299 781.17 729.191 777.094 721.505 766.826M815.43 730.916L813.333 725.951H807.463L802.851 724.709L796.98 721.813M815.43 730.916L795.026 742.916M815.43 730.916L830.106 704.434M796.98 721.813L793.206 717.675L786.494 706.296M796.98 721.813L721.505 766.826M773.918 622.918L743.309 637.401L721.505 653.125C721.505 653.125 693.411 676.297 690.895 679.193M773.918 622.918L777.273 584.436L781.466 532.713L792.368 466.094L805.786 399.061M773.918 622.918V638.228M777.273 676.297L775.596 653.125M777.273 676.297L780.833 696.986M777.273 676.297L698.493 717.675M775.596 653.125L694.876 703.104M775.596 653.125L773.918 638.228M780.833 696.986L786.494 706.296M780.833 696.986L705.571 738.162M786.494 706.296L712.574 752.847M495.077 731.744L501.367 576.575L498.013 491.749M495.077 731.744C495.077 731.744 457.843 752.764 451.469 770.64M495.077 731.744L507.657 727.192L516.462 729.261L524.01 734.64L527.784 744.571L534.073 739.192H541.621L547.911 744.571M498.013 491.749L464.049 452.853L453.147 446.646H440.987L424.416 449.543M551.265 753.674L547.911 744.571M547.911 744.571C550.594 751.854 556.297 705.675 583.971 729.261L591.938 723.054L599.066 721.813H604.517C604.517 712.213 630.235 699.607 643.094 694.503L660.285 679.193L664.479 677.952H668.672L674.123 679.193L679.154 682.503L690.895 679.193M690.895 679.193C691.242 682.023 691.621 684.781 692.029 687.469M694.876 703.104C695.982 708.266 697.197 713.118 698.493 717.675M694.876 703.104C693.821 698.179 692.864 692.972 692.029 687.469M698.493 717.675C700.664 725.307 703.065 732.112 705.571 738.162M705.571 738.162C707.849 743.663 710.215 748.54 712.574 752.847M712.574 752.847C715.63 758.424 718.674 763.045 721.505 766.826M773.918 638.228L729.471 658.918L692.029 687.469M773.918 638.228L789.433 600.16M429.036 417.413L424.416 449.543M424.416 449.543L409.958 550.092L403.668 687.469L412.054 805.398L426.73 885.672L433.416 911.74M893.002 378.372L887.132 373.406M893.002 378.372L868.263 387.889M893.002 378.372L896.776 392.44L890.486 414.785M876.23 364.717L869.521 361.407L856.942 360.165L851.49 348.579L842.266 340.717H832.622L822.977 341.959L817.107 345.269L813.333 350.234L820.462 358.51L805.786 384.992V392.44V399.061M876.23 364.717L881.261 368.441L887.132 373.406M876.23 364.717L887.132 373.406M805.786 399.061L819.204 403.199M805.786 399.061L868.263 387.889M868.263 387.889L835.976 443.336L815.43 495.473L799.915 545.127L792.368 572.437L789.433 600.16M789.433 600.16L795.722 594.781L836.395 591.057L842.266 584.436L846.039 576.988L856.522 563.333L874.133 539.748L892.583 518.645L912.71 488.438L896.776 428.44L890.486 414.785M890.486 414.785L880.423 429.06M880.423 429.06L870.359 443.336L860.715 468.577L859.038 476.439L859.877 480.577L861.973 483.887H864.908L867.005 480.577L874.133 455.336L880.423 429.06ZM795.026 742.916L791.949 800.432L786.707 829.397V857.948M786.707 917.533V857.948M786.707 857.948V919.188L807.463 913.809L822.139 918.775M973.929 700.296L975.606 717.261L981.057 730.089L981.896 760.502L982.734 790.915L987.347 811.191L990.701 822.776L992.378 840.569L990.701 848.845L987.766 857.534L981.057 865.396L967.639 878.637L938.707 905.533L927.805 912.568L918.999 914.637H909.775L904.323 915.878L896.357 919.188L872.037 922.085L868.263 923.74H836.815L822.139 918.775M973.929 700.296L975.606 688.71L979.799 677.538L978.541 651.056M973.929 700.296L967.22 712.71M978.541 651.056L975.606 649.814L961.769 670.917M978.541 651.056L970.155 666.159L961.769 681.262M961.769 670.917L948.77 677.538L944.996 681.262M961.769 670.917L948.77 692.848M944.996 681.262H935.352M944.996 681.262L937.868 696.986M935.352 681.262L922.144 684.365M935.352 681.262L922.144 683.331M900.969 687.469H908.936L922.144 684.365M900.969 687.469L891.325 679.607L890.207 672.573M900.969 687.469L905.581 719.744M890.207 672.573L891.325 670.917L889.228 670.09H887.272M890.207 672.573L887.272 670.09M887.272 670.09H879.584H867.005C865.999 670.09 871.617 677.538 872.037 679.193L879.165 687.469M879.165 687.469L885.035 688.71M879.165 687.469H877.907L869.94 692.848M879.165 687.469L891.325 719.744M851.49 675.055L861.973 689.952L869.94 692.848M851.49 675.055L869.94 692.848M851.49 675.055L847.297 672.573L844.782 670.09H836.815M851.49 675.055L853.587 695.331L851.91 710.227M869.94 692.848L868.263 717.261M830.106 704.434L821.72 757.812V778.915L824.235 799.191L829.686 821.535L836.815 840.569M830.106 704.434L812.075 768.157L799.915 825.673L801.593 847.604L807.463 868.707M830.106 704.434L830.944 688.917M807.463 868.707L805.786 851.328L807.463 834.776M807.463 868.707V886.086L812.075 903.464L822.139 918.775M836.815 704.434L853.168 736.295M853.168 736.295L887.551 770.64L908.936 784.294L927.385 792.57L926.547 795.467H924.45L920.677 797.536M853.168 736.295L868.263 756.985L885.035 775.605L903.485 788.432L914.682 795.141M853.168 736.295L835.557 703.193M920.677 797.536L915.226 795.467L914.682 795.141M920.677 797.536L914.682 795.141M835.557 703.193L830.944 688.917M835.557 703.193L836.815 670.09M835.557 703.193L851.91 710.227M913.129 703.193L925.499 700.089M937.868 696.986L948.77 692.848M937.868 696.986L925.499 700.089M937.868 696.986L948.77 717.261M961.769 681.262L948.77 692.848M961.769 681.262L973.929 688.917M948.77 692.848L959.672 700.296L967.22 712.71M967.22 712.71L964.704 721.813V732.985L970.155 751.192M967.22 712.71L948.77 717.261M868.263 717.261L891.325 719.744M868.263 717.261L851.91 710.227M891.325 719.744H905.581M929.901 719.744L948.77 717.261M929.901 719.744H905.581M929.901 719.744L925.499 700.089M830.944 688.917L831.783 673.4L833.46 671.745L835.557 671.331L836.815 670.09M922.144 684.365L925.499 700.089" stroke="#4340CD"/>
</g>

<g id="Shadow">
<path d="M880.842 669.676L860.715 660.573L867.005 669.676H880.842Z" fill="#090727"/>
<path d="M891.325 679.193V674.228L976.025 650.642L960.511 676.711L900.969 687.055L891.325 679.193Z" fill="#090727"/>
<path d="M880.842 669.676L860.715 660.573L867.005 669.676H880.842Z" stroke="#575D6F"/>
<path d="M891.325 679.193V674.228L976.025 650.642L960.511 676.711L900.969 687.055L891.325 679.193Z" stroke="#575D6F"/>
</g>
</g>

<path id="Neck" d="M598.028 289.342L595.525 277L663.955 340.354L676.89 345.291H701.509L735.307 337.063C737.671 339.395 742.317 344.057 741.983 344.057C741.649 344.057 699.84 386.019 678.977 407L578 333.361L589.683 320.608L595.525 306.62L598.028 295.924V289.342Z" fill="#F3B69D" stroke="#B1B1B1"/>

<g id="Mask">
<path id="BottomLine" d="M602.16 278.903L581.778 231.621L584.231 230.397L604.743 275.833L602.16 278.903Z" fill="white" stroke="#B1B1B1"/>
<path id="TopLine" d="M622.967 224.03L597.808 183.065L600.324 181.824L625.483 221.133L622.967 224.03Z" fill="white" stroke="#B1B1B1"/>

<g id="MaskBody">
<path d="M624.644 222.375L629.257 217.409L637.643 222.375L648.125 224.444H656.512L673.703 222.375H685.025L698.862 224.444L719.827 229.409L730.729 233.133L740.374 240.581H748.76H753.791L763.016 229.409H767.629L804.109 248.029L805.786 251.754L808.486 270.788L808.721 272.443L780.208 317.959L757.565 330.786L729.471 338.028L701.378 345.269H677.477L664.479 339.89L637.643 317.959L597.389 278.236L595.292 275.753H606.614H612.484L618.774 266.236V251.754L620.63 233.133L621.29 226.513L624.644 222.375Z" fill="#81AAC0"/>
<path d="M808.721 272.443L780.208 317.959L757.565 330.786L729.471 338.028M808.721 272.443L808.486 270.788M808.721 272.443L757.565 308.028M677.477 345.269H701.378L729.471 338.028M677.477 345.269L664.479 339.89L637.643 317.959L597.389 278.236L595.292 275.753H606.614H612.484L618.774 266.236M677.477 345.269L709.345 308.028M618.774 266.236V251.754M618.774 266.236L692.992 312.994M618.774 251.754L620.63 233.133M618.774 251.754L687.96 280.718M620.63 233.133L621.29 226.513L624.644 222.375L629.257 217.409L637.643 222.375L648.125 224.444H656.512L673.703 222.375H685.025L698.862 224.444L719.827 229.409L730.729 233.133L740.374 240.581H748.76H753.791L763.016 229.409H767.629L804.109 248.029L805.786 251.754L808.486 270.788M620.63 233.133L633.45 231.478L650.641 233.133L658.189 235.616L685.025 231.478H690.476L730.729 245.133M730.729 245.133L740.374 251.754H751.695M730.729 245.133L721.505 278.236M751.695 251.754L767.629 242.237L804.109 262.098M751.695 251.754C751.695 251.754 752.973 255.789 753.791 258.374L738.277 288.994M804.109 262.098L808.486 270.788M804.109 262.098L753.791 290.649M738.277 298.511L729.471 338.028" stroke="#1A848B" stroke-width="0.5"/>
</g>
</g>

<g id="Bottom_Hair">
<path fill-rule="evenodd" clip-rule="evenodd" d="M433.906 284.175L439.376 276.721L449.053 265.127L464.2 250.22L487.762 232L487.342 240.696L480.61 244.008L474.298 248.149L462.096 258.915L451.577 268.025L446.949 272.994L433.906 291.214L429.698 301.152L428.015 309.848L427.174 318.958L428.015 325.583L430.54 331.38L432.223 334.693L433.906 337.177L436.851 340.49L439.796 342.561L446.528 345.873L450.736 346.701L455.785 347.53L456.101 348.668L454.944 342.975L452.84 331.38V317.301L454.523 306.949L456.206 296.183L457.047 287.487L459.682 278.738L462.517 265.541L466.304 258.915L470.511 253.532L473.877 250.634L477.664 247.321L482.713 242.973L487.342 240.696L490.287 242.352L489.445 246.079L490.287 248.977L489.025 251.048L489.445 253.532L488.183 252.29H484.396L483.134 256.845L483.976 260.572L482.713 260.986L481.872 262.228V266.783L483.134 272.58L487.762 274.237L488.183 279.206L490.708 281.69H494.915L494.074 286.245L497.44 292.042L500.806 293.285L503.33 292.456L505.434 295.355H509.221L510.062 297.011L511.745 298.668L516.374 299.91L518.898 301.408L521.843 303.223L527.734 301.408L531.521 304.465H537.411L538.847 301.408L539.936 296.597L544.564 297.839L550.034 295.355H556.345L562.236 291.628V288.73L560.553 286.245L564.34 285.417L565.602 281.276L570.651 279.206L571.913 274.651H584.957L592.109 268.025L595.896 276.721L598 288.73L594.213 312.746L587.481 321.856L579.487 329.31L581.591 317.301V305.293L579.908 301.152L576.962 298.254L570.651 292.87C576.962 298.254 581.591 313.299 581.591 317.301L576.542 329.31L568.126 335.935L560.553 340.49H550.034L560.553 345.873L567.706 344.217L574.017 338.834L568.126 350.842L560.553 356.639L547.93 366.577H532.362L526.051 374.031L516.374 376.515L502.068 379L485.238 376.515L467.566 366.577L462.096 362.437L458.73 356.639L456.416 349.807L457.047 352.085L446.528 350.842L442.742 349.807L439.376 347.53L435.589 345.459L432.223 342.975L429.698 339.248L428.015 335.935L424.228 326.411C424.228 326.743 417.917 303.223 433.906 284.175Z" fill="#191313"/>
<path d="M487.342 240.696L480.61 244.008L474.298 248.149M487.342 240.696L487.762 232L464.2 250.22L449.053 265.127L439.376 276.721L433.906 284.175C417.917 303.223 424.228 326.743 424.228 326.411L428.015 335.935L429.698 339.248L432.223 342.975L435.589 345.459L439.376 347.53L442.742 349.807L446.528 350.842L457.047 352.085L456.416 349.807M487.342 240.696L490.287 242.352L489.445 246.079L490.287 248.977L489.025 251.048L489.445 253.532L488.183 252.29M487.342 240.696L482.713 242.973L477.664 247.321L473.877 250.634L470.511 253.532L466.304 258.915L462.517 265.541M474.298 248.149L462.096 258.915L451.577 268.025M474.298 248.149L451.577 268.025M451.577 268.025L446.949 272.994L433.906 291.214L429.698 301.152L428.015 309.848L427.174 318.958L428.015 325.583L430.54 331.38L432.223 334.693L433.906 337.177L436.851 340.49L439.796 342.561L446.528 345.873L450.736 346.701L455.785 347.53L456.101 348.668M452.84 317.301L459.682 278.738M452.84 317.301L454.523 306.949L456.206 296.183L457.047 287.487L459.682 278.738M452.84 317.301V331.38L454.944 342.975L456.101 348.668M462.517 265.541L460.413 275.065L459.682 278.738M462.517 265.541L459.682 278.738M532.362 366.577L526.051 374.031L516.374 376.515L502.068 379L485.238 376.515L467.566 366.577L462.096 362.437L458.73 356.639L456.416 349.807M532.362 366.577L519.319 359.538L507.117 349.186L502.068 344.631L497.86 338.834L490.708 328.482L485.659 316.059L481.872 302.808L477.664 272.994M532.362 366.577H547.93L560.553 356.639M560.553 356.639L551.296 359.538L544.564 356.639M560.553 356.639L568.126 350.842L574.017 338.834L567.706 344.217L560.553 345.873L550.034 340.49H560.553L568.126 335.935L576.542 329.31L581.591 317.301M581.591 317.301V305.293L579.908 301.152L576.962 298.254L570.651 292.87C576.962 298.254 581.591 313.299 581.591 317.301ZM581.591 317.301L579.487 329.31L587.481 321.856L594.213 312.746L598 288.73L595.896 276.721L592.109 268.025L584.957 274.651H571.913L570.651 279.206L565.602 281.276L564.34 285.417L560.553 286.245L562.236 288.73V291.628L556.345 295.355H550.034L544.564 297.839L539.936 296.597L538.847 301.408M581.591 317.301L578.645 319.786L574.017 320.614H569.389L564.34 319.786L555.925 317.715L551.296 316.059L547.089 313.575L543.723 311.09L541.198 307.777L538.847 301.408M581.591 317.301H576.542L570.651 316.059L565.602 315.231L560.553 313.575L556.345 311.09L553.4 307.777L551.296 305.293L550.034 301.408V296.183M538.674 301.152L538.847 301.408M538.847 301.408L537.411 304.465H531.521L527.734 301.408L521.843 303.223L518.898 301.408L516.374 299.91L511.745 298.668L510.062 297.011L509.221 295.355H505.434L503.33 292.456L500.806 293.285L497.44 292.042L494.074 286.245L494.915 281.69H490.708L488.183 279.206L487.762 274.237L483.134 272.58L481.872 266.783V262.228L482.713 260.986L483.976 260.572L483.134 256.845M483.134 256.845L484.396 252.29H488.183M483.134 256.845L483.976 252.29H488.183M456.416 349.807L456.206 349.186L456.101 348.668M456.416 349.807L456.101 348.668" stroke="#22150E"/>
</g>
<g id="Hair_Band">
<path d="M501.731 190.071L508.028 188C508.028 188 507.481 191.533 507.608 193.8C507.719 195.765 508.448 198.771 508.448 198.771L512.823 213.162L513.486 214.929L516.005 223.629L520.203 231.086L525.66 238.543L528.389 242.271L531.118 246L534.476 252.629L538.675 257.6L546.231 264.229L557.146 272.1L571 274.586L569.741 278.729L564.703 281.214L563.443 284.943L559.245 286.186L561.344 288.671V291.571L555.467 294.886H549.17L544.552 297.371L538.675 296.129V301.1L536.575 304H531.118L527.34 301.1L521.462 302.757L516.005 299.443L511.387 298.2L509.288 294.886H505.09L502.991 291.571L500.472 292.814L497.533 291.571L494.175 286.186L495.014 281.214H490.396L488.297 278.729L487.877 273.757L483.259 272.1C482.84 270.719 482 267.211 482 264.229C482 261.246 483.679 260.776 484.519 260.914C483.259 258.014 483.259 257.6 484.519 252.629H487.877L489.557 254.286V251.386L490.396 249.314L489.557 246L490.396 242.271L487.877 240.614L485.778 236.057L487.877 231.086L485.778 230.257L484.519 224.043L485.778 212.029L488.297 209.129V205.4L491.656 202.086L497.533 196.7L501.731 190.071Z" fill="#977C6E"/>
<path d="M487.877 231.086L485.778 230.257L484.519 224.043L485.778 212.029L488.297 209.129V205.4L491.656 202.086L497.533 196.7L501.731 190.071L508.028 188C508.028 188 507.481 191.533 507.608 193.8M487.877 231.086L490.396 231.914M487.877 231.086L485.778 236.057L487.877 240.614L490.396 242.271L489.557 246L490.396 249.314L489.557 251.386V254.286L487.877 252.629H484.519C483.259 257.6 483.259 258.014 484.519 260.914M484.519 260.914C485.526 263.234 493.615 270.443 497.533 273.757M484.519 260.914C483.679 260.776 482 261.246 482 264.229C482 267.211 482.84 270.719 483.259 272.1L487.877 273.757L488.297 278.729L490.396 281.214H495.014L494.175 286.186L497.533 291.571L500.472 292.814L502.991 291.571L505.09 294.886H509.288L511.387 298.2L516.005 299.443L521.462 302.757L527.34 301.1L531.118 304H536.575L538.675 301.1V296.129L544.552 297.371L549.17 294.886H555.467L561.344 291.571V288.671L559.245 286.186L563.443 284.943L564.703 281.214L569.741 278.729L571 274.586L557.146 272.1L546.231 264.229L538.675 257.6L534.476 252.629L531.118 246L528.389 242.271M520.203 231.086L525.66 238.543L528.389 242.271M520.203 231.086L528.389 242.271M520.203 231.086L516.005 223.629M508.448 198.771L516.005 223.629M508.448 198.771C508.448 198.771 507.719 195.765 507.608 193.8M508.448 198.771L509.288 203.743L513.486 214.929L516.005 223.629M507.608 193.8C507.608 193.8 503.41 197.943 502.571 200.843C501.731 203.743 502.991 209.129 502.991 209.129C502.991 213.82 500.472 216.586 502.991 221.143M511.387 236.057L502.991 221.143M502.991 221.143L507.608 240.614L525.66 260.914" stroke="#73584B"/>
</g>
<g id="Top_Hair">
<path fill-rule="evenodd" clip-rule="evenodd" d="M705.025 10.1195L710.901 13.4357L715.519 9.29047L722.235 6.80333L735.667 5.55976L750.358 8.46142L770.086 17.1664L786.877 27.944L803.247 49.0847L832.63 88.4644L846.062 124.943L849 148.363V174.685L844.383 197.07L839.346 195.826H833.469L828.012 197.07L824.654 199.557L820.877 202.458L820.037 204.531V194.168L814.58 166.395L770.086 104.216L775.543 122.041L779.321 131.575L783.938 139.865L788.975 147.327L796.951 153.545L811.222 164.322L794.012 158.104L782.679 154.374L773.025 148.363L762.111 141.523L751.617 130.331L738.185 111.263L728.111 95.9259V104.216L726.852 110.434L725.173 115.823L722.235 125.357L720.136 130.331L717.198 134.477L709.222 142.352L699.988 148.985L712.58 135.72L714.679 132.404L717.617 125.772L719.296 119.139L722.235 104.216L717.198 91.3661L713.84 80.174L707.963 100.071L703.346 111.263L698.728 119.968L694.951 126.186L690.333 132.404L686.975 136.964L682.778 141.523L671.025 153.13L693.691 124.528L653.395 148.363L641.222 157.69L625.272 161.835V166.395L617.716 176.343L606.802 179.245L597.568 182.976L596.728 177.172L595.469 172.613L593.79 167.638L590.432 157.69L582.877 152.301L578.679 150.228L571.963 148.985H565.667L560.63 150.228L557.272 152.301L553.914 157.69V174.685L558.111 197.484L562.309 205.775V210.749L565.247 220.697L566.926 226.501L572.802 233.548L584.556 241.838L591.691 268.989L584.556 275H569.864L559.37 272.513L557.02 271.152C554.574 270.255 552.95 269.451 553.284 268.989L547.198 265.466L535.444 253.445L529.148 241.838L519.494 229.402L514.457 214.065L509 198.728V180.489L512.358 166.395L519.494 150.228L529.148 130.331L540.481 111.263L547.198 95.9259L543.84 88.4644V80.174L547.198 70.6399L552.235 58.6188L559.37 47.0121L565.247 37.8926L579.519 27.944L587.914 23.3843L601.346 17.1664L622.325 10.7456L623.593 10.1195L648.778 4.31619L662.21 1H670.605H684.877L696.21 4.31619L705.025 10.1195ZM590.012 27.944L579.519 32.9183L566.926 39.9652L560.63 50.3283L552.235 63.1785L549.296 78.5159L554.333 85.5628L565.247 65.6657L575.741 47.0121L582.037 37.8926L590.012 27.944ZM665.568 139.036L691.593 107.533L705.864 91.3661L704.185 99.2421L702.086 107.533L698.728 114.579L695.37 120.797L665.568 139.036Z" fill="#1A1313"/>
<path d="M590.012 27.944L603.444 20.0681L611 17.1664L622.325 10.7456M590.012 27.944L582.037 37.8926L575.741 47.0121L565.247 65.6657L554.333 85.5628M590.012 27.944L579.519 32.9183L566.926 39.9652L560.63 50.3283L552.235 63.1785L549.296 78.5159L554.333 85.5628M554.333 85.5628L547.198 95.9259M547.198 95.9259L543.84 88.4644V80.174L547.198 70.6399L552.235 58.6188L559.37 47.0121L565.247 37.8926L579.519 27.944L587.914 23.3843L601.346 17.1664L622.325 10.7456M547.198 95.9259L540.481 111.263L529.148 130.331L519.494 150.228L512.358 166.395L509 180.489V198.728L514.457 214.065L519.494 229.402L529.148 241.838L535.444 253.445L547.198 265.466L553.284 268.989M622.325 10.7456L623.593 10.1195L648.778 4.31619L662.21 1H670.605H684.877L696.21 4.31619L705.025 10.1195L710.901 13.4357L715.519 9.29047L722.235 6.80333L735.667 5.55976L750.358 8.46142L770.086 17.1664L786.877 27.944L803.247 49.0847L832.63 88.4644L846.062 124.943L849 148.363V174.685L844.383 197.07L839.346 195.826H833.469L828.012 197.07L824.654 199.557L820.877 202.458L820.037 204.531V194.168L814.58 166.395L770.086 104.216L775.543 122.041L779.321 131.575L783.938 139.865L788.975 147.327L796.951 153.545L811.222 164.322L794.012 158.104L782.679 154.374L773.025 148.363L762.111 141.523L751.617 130.331L738.185 111.263L728.111 95.9259V104.216L726.852 110.434L725.173 115.823L722.235 125.357L720.136 130.331L717.198 134.477L709.222 142.352L699.988 148.985L712.58 135.72L714.679 132.404L717.617 125.772L719.296 119.139L722.235 104.216L717.198 91.3661L713.84 80.174M569.864 275L559.37 272.513L557.02 271.152M569.864 275H584.556L591.691 268.989L584.556 241.838L572.802 233.548L566.926 226.501L565.247 220.697L562.309 210.749V205.775L558.111 197.484L553.914 174.685V157.69L557.272 152.301L560.63 150.228L565.667 148.985H571.963L578.679 150.228L582.877 152.301L590.432 157.69L593.79 167.638L595.469 172.613L596.728 177.172L597.568 182.976L606.802 179.245L617.716 176.343L625.272 166.395V161.835L641.222 157.69L653.395 148.363M569.864 275C566.324 274.084 560.727 272.512 557.02 271.152M553.284 268.989C552.95 269.451 554.574 270.255 557.02 271.152M553.284 268.989L557.02 271.152M665.568 139.036L691.593 107.533L705.864 91.3661M665.568 139.036L653.395 148.363M665.568 139.036L695.37 120.797L698.728 114.579L702.086 107.533L704.185 99.2421L705.864 91.3661M705.864 91.3661L713.84 80.174M713.84 80.174L707.963 100.071L703.346 111.263L698.728 119.968L694.951 126.186L690.333 132.404L686.975 136.964L682.778 141.523L671.025 153.13L693.691 124.528L653.395 148.363" stroke="#302221"/>
</g>

<g id="Ears">
<g id="left_Ear">
<path d="M584.465 230.682L591.862 232.164L594.834 228.115L596.169 221.627L596.784 208.239L596.571 196.796L594.875 186.323L594.906 175.774L592.978 160.187L589.841 155.342L585.273 151.888L577.388 148.619L569.58 147.055L564.315 147.689L557.555 151.204L554.49 159.066L552.523 169.41L551.265 176.389L554.49 189.21L555.621 196.192L556.841 200.659L556.328 207.312L557.273 221.435L560.786 229.316L567.92 236.234L572.029 237.058L578.199 236.183L584.465 230.682Z" fill="#F9CDBB"/>
<path d="M588.603 193.933L588.724 180.868L585.377 172.176C585.309 167.658 583.691 158.327 577.774 157.141C571.857 155.956 565.973 161.814 563.771 164.892L560.768 179.49L564.59 194.189L563.814 206.278C567.529 218.169 572.619 223.102 574.699 224.081M588.603 193.933C589.713 189.23 590.192 179.136 583.227 176.389C576.262 173.643 570.442 180.302 568.403 183.975L566.651 192.491L568.43 202.559C568.392 206.21 569.252 213.954 572.997 215.718C578.159 221.819 582.377 213.797 584.914 218.105C586.881 220.189 587.993 214.922 588.303 212.029C585.23 213.102 579.813 213.368 582.729 205.846M588.603 193.933C587.86 194.77 585.646 198.323 582.729 205.846M588.603 193.933L584.089 190.918L578.972 197.071L582.729 205.846M567.92 236.234L560.786 229.316L557.273 221.435L556.328 207.312L556.841 200.659L555.621 196.192L554.49 189.21L551.265 176.389L552.523 169.41L554.49 159.066L557.555 151.204L564.315 147.689L569.58 147.055L577.388 148.619L585.273 151.888L589.841 155.342L592.978 160.187L594.906 175.774L594.875 186.323L596.571 196.796L596.784 208.239L596.169 221.627L594.834 228.115L591.862 232.164L584.465 230.682L578.199 236.183L572.029 237.058L567.92 236.234Z" stroke="#FF9063"/>
</g>
<g id="right_Ear">
<path d="M815.829 264.155H809.938L808.302 260.248V254.564L809.938 243.197L811.902 233.606L814.847 225.08L816.483 216.199L820.41 203.411L827.61 197.727L834.156 196.306H840.374L844.301 197.727L848.555 203.411L847.901 213.357V217.265L847.246 222.593L845.283 234.316L844.628 237.158L843.319 240L841.683 243.552L841.028 249.236L838.083 260.958L834.156 266.997L827.61 271.615H824.338L819.756 269.839L815.829 264.155Z" fill="#F9CDBB"/>
<path d="M818.447 232.54L820.41 221.528L824.338 214.778C825.101 210.989 827.807 203.411 832.519 203.411C837.232 203.411 840.81 209.331 842.01 212.292V225.08L836.774 236.803L835.465 247.104C830.752 256.482 826.083 259.774 824.338 260.248M818.447 232.54C818.338 228.395 819.56 219.823 825.319 218.686C831.079 217.549 834.483 224.133 835.465 227.567V235.026L832.519 243.197C831.974 246.275 830.098 252.646 826.956 253.498C822.047 257.761 820.083 250.301 817.465 253.498C815.632 254.919 815.611 250.301 815.829 247.815C818.011 249.236 822.112 250.372 821.065 243.552M818.447 232.54C818.883 233.369 820.018 236.732 821.065 243.552M818.447 232.54L822.374 230.764L825.319 236.803L821.065 243.552M827.61 271.615L834.156 266.997L838.083 260.958L841.028 249.236L841.683 243.552L843.319 240L844.628 237.158L845.283 234.316L847.246 222.593L847.901 217.265V213.357L848.555 203.411L844.301 197.727L840.374 196.306H834.156L827.61 197.727L820.41 203.411L816.483 216.199L814.847 225.08L811.902 233.606L809.938 243.197L808.302 254.564V260.248L809.938 264.155H815.829L819.756 269.839L824.338 271.615H827.61Z" stroke="#FF9063"/>
</g>
</g>

<g id="Mobile">
<g id="LightPhone" filter="url(#filter0_f_0_1)">
<ellipse cx="920.257" cy="528.576" rx="98.5377" ry="94.7567" fill="#CECBF4" fill-opacity="0.3"/>
</g>
<path id="TopPhone" d="M1004.96 516.162L911.452 483.059L913.548 480.577L915.645 479.749L917.741 479.335L1001.6 508.3L1003.28 509.541L1004.54 512.024L1004.96 514.093L1004.96 516.162Z" fill="#5E6681" stroke="#575D6F"/>
<path id="Case" d="M852.552 570.969L886.649 523.36L901.531 499.217L909.904 484.522C912.281 480.35 917.3 478.478 921.85 480.068L965.231 495.222L998.049 506.464C1004.07 508.528 1006.7 515.611 1003.45 521.067L986.739 549.192L955.978 597.76L912.22 673.492C909.669 677.908 904.189 679.671 899.514 677.581L815.443 639.981C809.536 637.339 807.617 629.886 811.524 624.763L852.552 570.969Z" fill="#8088A4" stroke="#3A425B"/>
<path id="SquareLens" d="M899.842 517.902L912.509 497.138C915.172 492.774 920.699 491.121 925.321 493.308L929.062 495.078C934.441 497.622 936.422 504.271 933.313 509.344L920.682 529.954C918.088 534.186 912.784 535.874 908.221 533.92L904.444 532.304C898.844 529.906 896.67 523.101 899.842 517.902Z" fill="#70879D" stroke="#5EA6E9" stroke-opacity="0.3"/>
    <g id="Lens">
<path id="LensW1" d="M916.264 529.894C916.256 530.691 915.668 531.29 914.998 531.285C914.328 531.28 913.751 530.671 913.759 529.875C913.767 529.079 914.356 528.479 915.026 528.484C915.696 528.489 916.272 529.098 916.264 529.894Z" fill="#F8E2AB" stroke="#D9D9D9" stroke-width="0.5"/>
<path id="LensB3" d="M909.764 526.071C908.577 528.23 906.225 528.923 904.553 527.819C902.881 526.715 902.341 524.111 903.527 521.951C904.714 519.792 907.066 519.099 908.738 520.203C910.41 521.307 910.951 523.911 909.764 526.071Z" fill="#1B1A1A" stroke="#454560"/>
<path id="LensB3_2" d="M907.727 524.645C907.378 525.28 906.668 525.448 906.163 525.114C905.657 524.78 905.461 524.014 905.81 523.379C906.159 522.744 906.869 522.576 907.374 522.91C907.88 523.243 908.076 524.01 907.727 524.645Z" fill="#1C1828" stroke="#181940"/>
<path id="LensB2" d="M915.13 515.382C913.943 517.542 911.591 518.235 909.919 517.131C908.247 516.027 907.706 513.423 908.893 511.263C910.079 509.104 912.432 508.41 914.104 509.515C915.776 510.619 916.316 513.223 915.13 515.382Z" fill="#1B1A1A" stroke="#454560"/>
<path id="LensB2_2" d="M913.093 513.957C912.744 514.592 912.034 514.76 911.528 514.426C911.023 514.092 910.826 513.326 911.175 512.691C911.524 512.056 912.234 511.888 912.74 512.222C913.245 512.555 913.442 513.322 913.093 513.957Z" fill="#1C1828" stroke="#181940"/>
<path id="LensB1" d="M921.255 503.875C920.068 506.034 917.716 506.728 916.044 505.623C914.372 504.519 913.832 501.915 915.018 499.756C916.205 497.596 918.557 496.903 920.229 498.007C921.901 499.112 922.442 501.715 921.255 503.875Z" fill="#1B1A1A" stroke="#454560"/>
<path id="LensB1_2" d="M919.218 502.45C918.869 503.085 918.159 503.252 917.654 502.919C917.148 502.585 916.951 501.818 917.3 501.183C917.649 500.548 918.36 500.38 918.865 500.714C919.37 501.048 919.567 501.815 919.218 502.45Z" fill="#1C1828" stroke="#181940"/>
</g>
</g>

<g id="Left_Hand">
<path d="M779.322 694.013L773 626.038C788.905 595.9 851.818 542.727 862.355 541.069C871.502 539.63 861.002 561.162 847.835 564.28H869.099L891.257 572.156C884.26 569.669 897.901 574.783 898.844 581.274L898.182 584.59L896.496 586.662H891.438L882.587 583.761L871.207 579.616C865.306 579.202 859.405 575.471 844.231 578.373L842.003 579.616L832.851 585.833L829.479 592.05L859.405 590.807L899.025 594.952L909.14 597.024L921.785 598.682L924.736 601.169L926 605.314L924.736 609.459L921.785 611.946L917.57 613.189L913.777 614.018L909.14 614.432L893.545 612.36L874.157 609.459H850.554L828.215 620.235H829.479L862.355 621.479L909.14 628.939L912.091 629.768L919.678 633.499V635.571V637.643L918.413 641.374L916.306 643.861L912.091 645.933L902.818 643.861L890.595 639.716L875.843 640.13L850.554 642.203L841.702 643.861L834.116 648.42L856.455 656.295L863.198 664.999L865.727 669.144L871.207 679.506L878.372 687.381L877.529 689.453L875.843 691.526L874.579 692.355L872.893 692.769L871.207 693.184H869.521L863.198 689.453L850.554 674.532L844.653 670.387H836.645L834.116 674.532L828.215 708.105L816.835 728L802.504 724.684L791.545 717.224L779.322 694.013Z" fill="#E9C0AF"/>
<path d="M829.479 620.235L862.355 621.479L909.14 628.939L912.091 629.768L919.678 633.499V635.571V637.643L918.413 641.374L916.306 643.861L912.091 645.933L902.818 643.861L890.595 639.716L875.843 640.13L850.554 642.203L841.702 643.861L834.116 648.42L856.455 656.295L863.198 664.999L865.727 669.144L871.207 679.506L878.372 687.381L877.529 689.453L875.843 691.526L874.579 692.355L872.893 692.769L871.207 693.184H869.521L863.198 689.453L850.554 674.532L844.653 670.387H836.645L834.116 674.532L828.215 708.105L816.835 728L802.504 724.684L791.545 717.224L779.322 694.013L773 626.038C788.905 595.9 851.818 542.727 862.355 541.069C872.893 539.411 857.355 568.241 841.702 564.28M829.479 620.235L818.521 622.308L811.355 631.841L807.983 635.571M829.479 620.235H828.215L850.554 609.459H874.157L893.545 612.36L909.14 614.432L913.777 614.018L917.57 613.189L921.785 611.946L924.736 609.459L926 605.314L924.736 601.169L921.785 598.682L909.14 597.024L899.025 594.952L859.405 590.807L829.479 592.05M818.521 573.939L841.702 564.28M841.702 564.28H869.099L891.257 572.156C884.26 569.669 897.901 574.783 898.844 581.274L898.182 584.59L896.496 586.662H891.438L882.587 583.761L871.207 579.616C865.306 579.202 859.405 575.471 844.231 578.373L842.003 579.616M816.835 594.123L829.479 592.05M829.479 592.05L819.785 593.294C806.972 598.931 823.86 591.222 822.736 592.05L842.003 579.616M829.479 592.05L832.851 585.833L842.003 579.616" stroke="#73584B"/>
</g>
<g id="Right_Hand">
<path d="M992.424 493.407L987.435 503.115L989.434 505.068L992.229 507.278L995.822 509.747L1005.67 517.287L1009.33 506.278L1009.44 501.959L1007.57 498.304L1004.1 495.443L1000.25 493.761L996.134 492.865L992.424 493.407Z" fill="#E9C0AF"/>
<path d="M981.361 559.196L995.327 594.934L994.309 603.313L988.625 610.239L983.573 616.712L984.412 623.332L981.361 630.108L981.361 641.613L972.058 649.814L961.769 663.469L945.416 677.124L942.481 677.952L921.474 681.676L912.29 684.159L909.276 683.745L895.695 677.952L893.421 676.71L893.002 673.814L895.099 671.745L906.839 675.055L910.38 675.883L913.548 675.055L916.897 673.814L934.836 668.118L907.403 671.001L886.293 667.193L880.658 663.883L877.316 661.132L874.857 658.116L875.228 653.011L879.584 651.47L882.519 653.539L889.228 657.676L900.55 659.332L911.032 658.918L918.604 657.206L928.538 655.194L922.773 656.021L932.836 638.228L951.241 633.253L919.053 641.24L902.707 643.954L873.977 642.772L871.477 642.365C868.472 641.876 865.697 640.477 863.529 638.358L863.901 633.253L864.946 630.108L868.91 627.471L887.272 627.471L902.707 626.229L912.29 625.366L922.773 622.918L959.489 613.823L912.551 614.317L900.48 613.461L889.99 610.503L885.992 605.953L885.992 600.574L888.39 596.765L892.425 593.873L916.175 596.765L927.978 597.099L938.311 595.216L963.865 586.497L981.361 559.196Z" fill="#E9C0AF"/>
<path d="M945.416 616.712L947.093 614.229L955.479 614.229L945.416 616.712Z" fill="#E9C0AF"/>
<path d="M983.573 616.712L988.379 610.539L988.625 610.239M983.573 616.712L984.412 623.332L981.361 630.108L981.361 641.613L972.058 649.814L961.769 663.469L945.416 677.124L942.481 677.952L921.474 681.676L912.29 684.159L909.276 683.745L895.695 677.952L893.421 676.71L893.002 673.814L895.099 671.745L906.839 675.055L910.38 675.883L913.548 675.055L916.897 673.814L934.836 668.118M983.573 616.712L988.625 610.239M934.836 668.118L947.334 658.389L957.14 647.463M934.836 668.118L907.403 671.001L886.293 667.193L880.658 663.883L877.316 661.132L874.857 658.116L875.228 653.011L879.584 651.47L882.519 653.539L889.228 657.676L900.55 659.332L911.032 658.918L918.604 657.206L928.538 655.194M951.241 633.253L934.836 647.463L928.538 655.194M951.241 633.253L951.241 634.669M951.241 633.253L919.053 641.24L902.707 643.954L873.977 642.772L871.477 642.365C868.472 641.876 865.697 640.477 863.529 638.358V638.358L863.901 633.253L864.946 630.108L868.91 627.471L887.272 627.471L902.707 626.229L912.29 625.366L922.773 622.918L959.489 613.823L912.551 614.317L900.48 613.461M951.241 633.253L932.836 638.228L922.773 656.021L928.538 655.194M890.519 610.239L900.48 613.461M900.48 613.461L889.99 610.503L885.992 605.953L885.992 600.574L888.39 596.765L892.425 593.873L916.175 596.765L927.978 597.099L938.311 595.216M981.361 586.497L938.311 595.216M938.311 595.216L963.865 586.497L981.361 559.196L995.327 594.934L994.309 603.313L988.625 610.239M987.435 503.115L992.424 493.407L996.134 492.865L1000.25 493.761L1004.1 495.443L1007.57 498.304L1009.44 501.959L1009.33 506.278L1005.67 517.287L995.822 509.747L992.229 507.278L989.434 505.068L987.435 503.115ZM947.093 614.229L945.416 616.712L955.479 614.229L947.093 614.229Z" stroke="#575D6F"/>
</g>

<path id="Bag" d="M523.309 733L529.578 562.416L530 514.945L527.07 473.441L520.716 436.023L505.523 395L503.413 397.344L495.817 398.516L484 397.735L500.037 507.912L496.127 730.108L508.255 725.976L516.618 728.042L523.309 733Z" fill="#839BB1" stroke="#73584B"/>

<g id="Circle_center" filter="url(#filter1_f_0_1)">
<ellipse cx="169.5" cy="350.5" rx="149.5" ry="147.5" fill="#EAC76D"/>
<path d="M316.5 350.5C316.5 430.55 250.718 495.5 169.5 495.5C88.2823 495.5 22.5 430.55 22.5 350.5C22.5 270.45 88.2823 205.5 169.5 205.5C250.718 205.5 316.5 270.45 316.5 350.5Z" stroke="#8A5B00" stroke-width="5"/>
</g>
<g id="Circle_top" filter="url(#filter2_f_0_1)">
<ellipse cx="1067.5" cy="159.5" rx="110.5" ry="112.5" fill="#EAC76D"/>
<path d="M1175.5 159.5C1175.5 220.294 1127.1 269.5 1067.5 269.5C1007.9 269.5 959.5 220.294 959.5 159.5C959.5 98.7062 1007.9 49.5 1067.5 49.5C1127.1 49.5 1175.5 98.7062 1175.5 159.5Z" stroke="#8A5B00" stroke-width="5"/>
</g>
<g id="Circle_bottom" filter="url(#filter3_f_0_1)">
<ellipse cx="1138.5" cy="752.5" rx="71.5" ry="65.5" fill="#EAC76D"/>
<path d="M1207.5 752.5C1207.5 787.092 1176.82 815.5 1138.5 815.5C1100.18 815.5 1069.5 787.092 1069.5 752.5C1069.5 717.908 1100.18 689.5 1138.5 689.5C1176.82 689.5 1207.5 717.908 1207.5 752.5Z" stroke="#8A5B00" stroke-width="5"/>
</g>

<defs>
<filter id="filter0_f_0_1" x="801.72" y="413.819" width="237.075" height="229.513" filterUnits="userSpaceOnUse" color-interpolation-filters="sRGB">
<feFlood flood-opacity="0" result="BackgroundImageFix"/>
<feBlend mode="normal" in="SourceGraphic" in2="BackgroundImageFix" result="shape"/>
<feGaussianBlur stdDeviation="10" result="effect1_foregroundBlur_0_1"/>
</filter>
<filter id="filter1_f_0_1" x="0" y="183" width="339" height="335" filterUnits="userSpaceOnUse" color-interpolation-filters="sRGB">
<feFlood flood-opacity="0" result="BackgroundImageFix"/>
<feBlend mode="normal" in="SourceGraphic" in2="BackgroundImageFix" result="shape"/>
<feGaussianBlur stdDeviation="10" result="effect1_foregroundBlur_0_1"/>
</filter>
<filter id="filter2_f_0_1" x="937" y="27" width="261" height="265" filterUnits="userSpaceOnUse" color-interpolation-filters="sRGB">
<feFlood flood-opacity="0" result="BackgroundImageFix"/>
<feBlend mode="normal" in="SourceGraphic" in2="BackgroundImageFix" result="shape"/>
<feGaussianBlur stdDeviation="10" result="effect1_foregroundBlur_0_1"/>
</filter>
<filter id="filter3_f_0_1" x="1047" y="667" width="183" height="171" filterUnits="userSpaceOnUse" color-interpolation-filters="sRGB">
<feFlood flood-opacity="0" result="BackgroundImageFix"/>
<feBlend mode="normal" in="SourceGraphic" in2="BackgroundImageFix" result="shape"/>
<feGaussianBlur stdDeviation="10" result="effect1_foregroundBlur_0_1"/>
</filter>
</defs>
</svg>
